<svg width="10" height="11" viewBox="0 0 10 11" fill="none" xmlns="http://www.w3.org/2000/svg">
<path d="M5.75 1.0017C5.75 0.587488 5.41421 0.251701 5 0.251701C4.58579 0.251701 4.25 0.587488 4.25 1.0017V4.5017H0.75C0.335786 4.5017 0 4.83749 0 5.2517C0 5.66592 0.335786 6.0017 0.75 6.0017H4.25L4.25 9.5017C4.25 9.91591 4.58579 10.2517 5 10.2517C5.41421 10.2517 5.75 9.91591 5.75 9.5017V6.0017H9.25C9.66421 6.0017 10 5.66592 10 5.2517C10 4.83749 9.66421 4.5017 9.25 4.5017H5.75V1.0017Z" fill="#999999"/>
</svg>
